<?xml version="1.0" encoding="UTF-8" standalone="no"?>
<!-- Created with Inkscape (http://www.inkscape.org/) -->

<svg
   xmlns:dc="http://purl.org/dc/elements/1.1/"
   xmlns:cc="http://creativecommons.org/ns#"
   xmlns:rdf="http://www.w3.org/1999/02/22-rdf-syntax-ns#"
   xmlns:svg="http://www.w3.org/2000/svg"
   xmlns="http://www.w3.org/2000/svg"
   xmlns:xlink="http://www.w3.org/1999/xlink"
   xmlns:sodipodi="http://sodipodi.sourceforge.net/DTD/sodipodi-0.dtd"
   xmlns:inkscape="http://www.inkscape.org/namespaces/inkscape"
   width="210mm"
   height="297mm"
   viewBox="0 0 210 297"
   version="1.1"
   id="svg8"
   inkscape:version="0.92.3 (2405546, 2018-03-11)"
   sodipodi:docname="EndGame1.svg">
  <defs
     id="defs2">
    <linearGradient
       inkscape:collect="always"
       id="linearGradient851">
      <stop
         style="stop-color:#ffffff;stop-opacity:1;"
         offset="0"
         id="stop847" />
      <stop
         style="stop-color:#ffffff;stop-opacity:0;"
         offset="1"
         id="stop849" />
    </linearGradient>
    <linearGradient
       inkscape:collect="always"
       xlink:href="#linearGradient851"
       id="linearGradient853"
       x1="260.23215"
       y1="298.62698"
       x2="260.23215"
       y2="527.91229"
       gradientUnits="userSpaceOnUse"
       gradientTransform="matrix(0.26458333,0,0,0.26458333,-27.261492,-3.7417734)" />
  </defs>
  <sodipodi:namedview
     id="base"
     pagecolor="#ffffff"
     bordercolor="#666666"
     borderopacity="1.0"
     inkscape:pageopacity="0.0"
     inkscape:pageshadow="2"
     inkscape:zoom="0.7"
     inkscape:cx="119.4082"
     inkscape:cy="691.41525"
     inkscape:document-units="mm"
     inkscape:current-layer="layer1"
     showgrid="false"
     inkscape:window-width="2560"
     inkscape:window-height="1377"
     inkscape:window-x="-8"
     inkscape:window-y="-8"
     inkscape:window-maximized="1" />
  <metadata
     id="metadata5">
    <rdf:RDF>
      <cc:Work
         rdf:about="">
        <dc:format>image/svg+xml</dc:format>
        <dc:type
           rdf:resource="http://purl.org/dc/dcmitype/StillImage" />
        <dc:title />
      </cc:Work>
    </rdf:RDF>
  </metadata>
  <g
     inkscape:label="Layer 1"
     inkscape:groupmode="layer"
     id="layer1">
    <path
       style="opacity:1;fill:#ffffff;fill-opacity:1;stroke:#000000;stroke-width:2;stroke-linecap:round;stroke-linejoin:miter;stroke-miterlimit:4;stroke-dasharray:none;stroke-dashoffset:0;stroke-opacity:1"
       id="path848"
       sodipodi:type="arc"
       sodipodi:cx="162.95004"
       sodipodi:cy="121.7948"
       sodipodi:rx="26.326048"
       sodipodi:ry="31.270535"
       sodipodi:start="0"
       sodipodi:end="6.2731322"
       sodipodi:open="true"
       d="m 189.27609,121.7948 a 26.326048,31.270535 0 0 1 -26.25988,31.27044 26.326048,31.270535 0 0 1 -26.39188,-31.11326 26.326048,31.270535 0 0 1 26.12722,-31.426826 26.326048,31.270535 0 0 1 26.52321,30.955286"
       transform="rotate(46.698978)"
       inkscape:export-xdpi="96"
       inkscape:export-ydpi="96" />
    <path
       transform="rotate(46.698978)"
       d="m 183.52192,129.75182 a 20.343578,24.164454 0 0 1 -20.29245,24.16437 20.343578,24.164454 0 0 1 -20.39445,-24.04291 20.343578,24.164454 0 0 1 20.18994,-24.28523 20.343578,24.164454 0 0 1 20.49594,23.92084"
       sodipodi:open="true"
       sodipodi:end="6.2731322"
       sodipodi:start="0"
       sodipodi:ry="24.164454"
       sodipodi:rx="20.343578"
       sodipodi:cy="129.75182"
       sodipodi:cx="163.17834"
       sodipodi:type="arc"
       id="path852"
       style="opacity:1;fill:#000000;fill-opacity:0.1254902;stroke:none;stroke-width:1.54550946;stroke-linecap:round;stroke-linejoin:miter;stroke-miterlimit:4;stroke-dasharray:none;stroke-dashoffset:0;stroke-opacity:1"
       inkscape:export-xdpi="96"
       inkscape:export-ydpi="96" />
    <path
       style="fill:#b3b3b3;fill-opacity:1;stroke:#000000;stroke-width:2;stroke-linecap:butt;stroke-linejoin:miter;stroke-miterlimit:4;stroke-dasharray:none;stroke-opacity:1"
       d="m 127.14177,120.52311 11.30384,28.94411 59.06656,23.51972 -145.394612,6.1472 16.83798,-14.96709 -0.801809,-10.42351 z"
       id="path828"
       inkscape:connector-curvature="0"
       inkscape:export-xdpi="96"
       inkscape:export-ydpi="96" />
    <path
       style="opacity:1;fill:#000000;fill-opacity:0.25098039;stroke:none;stroke-width:2;stroke-linecap:round;stroke-linejoin:miter;stroke-miterlimit:4;stroke-dasharray:none;stroke-dashoffset:0;stroke-opacity:1"
       d="m 127.142,120.523 -58.988129,33.22071 0.801502,10.42313 -1.895493,1.68517 c 4.414729,0.56638 10.601888,0.99186 18.282089,0.56379 16.255131,-0.90601 28.330561,-5.47873 28.330561,-5.47873 l 2.44637,-6.93136 c 7.28618,-4.51902 13.14032,-10.36036 17.40255,-17.14831 z"
       id="path830"
       inkscape:connector-curvature="0"
       inkscape:export-xdpi="96"
       inkscape:export-ydpi="96" />
    <path
       style="opacity:1;fill:#ffffff;fill-opacity:1;stroke:#000000;stroke-width:2;stroke-linecap:round;stroke-linejoin:miter;stroke-miterlimit:4;stroke-dasharray:none;stroke-dashoffset:0;stroke-opacity:1"
       d="m 78.402858,39.072151 c -0.478237,-0.0048 -0.957722,-0.0037 -1.438671,0.0036 -30.780612,0.468611 -58.237402,25.22797 -54.046832,59.241854 4.190574,34.013905 22.724708,47.663455 28.532109,53.554875 0,0 9.669893,2.91053 25.925033,2.00453 16.255129,-0.90601 28.330573,-5.47873 28.330573,-5.47873 l 2.44636,-6.93136 c 12.3125,-7.63643 20.53827,-19.04857 23.89724,-32.42438 H 120.23286 V 82.495856 H 132.3484 C 126.69205,57.732848 104.6463,39.335176 78.402858,39.072151 Z"
       id="path815"
       inkscape:connector-curvature="0"
       inkscape:export-xdpi="96"
       inkscape:export-ydpi="96" />
    <path
       style="fill:none;stroke:#000000;stroke-width:1;stroke-linecap:butt;stroke-linejoin:miter;stroke-miterlimit:4;stroke-dasharray:none;stroke-opacity:1"
       d="m 22.985179,83.718915 c 0,0 1.346779,6.689523 9.87464,8.338976 27.320061,5.284224 44.261339,-27.9749 66.133899,-35.640761 14.745802,-4.251854 20.208482,1.243008 20.208482,1.243008"
       id="path817"
       inkscape:connector-curvature="0"
       sodipodi:nodetypes="cscc"
       inkscape:export-xdpi="96"
       inkscape:export-ydpi="96" />
    <path
       style="opacity:1;fill:#cccccc;fill-opacity:1;stroke:none;stroke-width:2;stroke-linecap:round;stroke-linejoin:miter;stroke-miterlimit:4;stroke-dasharray:none;stroke-dashoffset:0;stroke-opacity:1"
       id="path832"
       sodipodi:type="arc"
       sodipodi:cx="131.29616"
       sodipodi:cy="95.478775"
       sodipodi:rx="11.158503"
       sodipodi:ry="18.441597"
       sodipodi:start="0"
       sodipodi:end="6.2731322"
       sodipodi:open="true"
       d="M 142.45466,95.478775 A 11.158503,18.441597 0 0 1 131.3242,113.92031 11.158503,18.441597 0 0 1 120.1378,95.571472 11.158503,18.441597 0 0 1 131.21203,77.037702 11.158503,18.441597 0 0 1 142.4541,95.293383"
       inkscape:export-xdpi="96"
       inkscape:export-ydpi="96" />
    <path
       style="opacity:1;fill:#faff00;fill-opacity:1;stroke:#000000;stroke-width:1;stroke-linecap:round;stroke-linejoin:miter;stroke-miterlimit:4;stroke-dasharray:none;stroke-dashoffset:0;stroke-opacity:1"
       id="path857"
       sodipodi:type="arc"
       sodipodi:cx="124.69886"
       sodipodi:cy="95.781555"
       sodipodi:rx="7.8178301"
       sodipodi:ry="10.865792"
       sodipodi:start="0"
       sodipodi:end="6.2628871"
       sodipodi:open="true"
       d="m 132.51669,95.781555 a 7.8178301,10.865792 0 0 1 -7.77816,10.865655 7.8178301,10.865792 0 0 1 -7.8571,-10.755379 7.8178301,10.865792 0 0 1 7.69842,-10.974809 7.8178301,10.865792 0 0 1 7.93523,10.643992"
       inkscape:export-xdpi="96"
       inkscape:export-ydpi="96" />
    <path
       style="opacity:1;fill:#ffffff;fill-opacity:1;stroke:#000000;stroke-width:2;stroke-linecap:round;stroke-linejoin:miter;stroke-miterlimit:4;stroke-dasharray:none;stroke-dashoffset:0;stroke-opacity:1"
       d="m 123.62283,71.293956 a 17.787544,24.722431 0 0 0 -17.51572,24.970051 17.787544,24.722431 0 0 0 17.87694,24.471383 17.787544,24.722431 0 0 0 17.69711,-24.722014 l -0.004,-0.501777 A 17.787544,24.722431 0 0 0 123.62283,71.293956 Z m 7.80934,11.184847 a 9.5722894,13.304268 0 0 1 9.71621,13.032796 l 0.002,0.26975 a 9.5722894,13.304268 0 0 1 -9.52396,13.304101 9.5722894,13.304268 0 0 1 -9.62009,-13.168708 9.5722894,13.304268 0 0 1 9.42578,-13.437939 z"
       id="path823"
       inkscape:connector-curvature="0"
       inkscape:export-xdpi="96"
       inkscape:export-ydpi="96" />
    <path
       style="fill:#00007e;fill-opacity:1;stroke:#000000;stroke-width:1;stroke-linecap:butt;stroke-linejoin:miter;stroke-miterlimit:4;stroke-dasharray:none;stroke-opacity:1"
       d="M 81.560806,67.373781 C 66.896195,79.603145 52.582282,95.872752 32.859902,92.058061 25.126621,90.5623 23.313897,84.973665 23.040347,83.935562 c -0.666038,4.561702 -0.740431,9.370451 -0.122992,14.382063 1.051582,8.535445 3.006612,15.787925 5.436878,21.957845 1.418201,1.73019 6.352392,4.48751 23.354647,4.91597 25.063444,0.63163 38.895299,-9.26661 38.895299,-9.26661 0,0 7.834204,-11.28083 4.677236,-27.395234 C 92.353488,73.58439 82.91687,68.093198 81.560806,67.373781 Z"
       id="path826"
       inkscape:connector-curvature="0"
       inkscape:export-xdpi="96"
       inkscape:export-ydpi="96" />
    <path
       id="path845"
       d="M 81.560806,67.373781 C 66.896195,79.603145 52.582282,95.872752 32.859902,92.058061 25.126621,90.5623 23.313897,84.973665 23.040347,83.935562 c -0.666038,4.561702 -0.740431,9.370451 -0.122992,14.382063 1.051582,8.535445 3.006612,15.787925 5.436878,21.957845 1.418201,1.73019 6.352392,4.48751 23.354647,4.91597 25.063444,0.63163 38.895299,-9.26661 38.895299,-9.26661 0,0 7.834204,-11.28083 4.677236,-27.395234 C 92.353488,73.58439 82.91687,68.093198 81.560806,67.373781 Z"
       style="fill:url(#linearGradient853);fill-opacity:1;stroke:#000000;stroke-width:1;stroke-linecap:butt;stroke-linejoin:miter;stroke-miterlimit:4;stroke-dasharray:none;stroke-opacity:1"
       inkscape:connector-curvature="0"
       inkscape:export-xdpi="96"
       inkscape:export-ydpi="96" />
    <path
       transform="rotate(-48.420116)"
       d="m 15.918626,278.10422 a 26.326048,31.270535 0 0 1 -26.259883,31.27043 26.326048,31.270535 0 0 1 -26.39188,-31.11325 26.326048,31.270535 0 0 1 26.127223,-31.42683 26.326048,31.270535 0 0 1 26.52321,30.95529"
       sodipodi:open="true"
       sodipodi:end="6.2731322"
       sodipodi:start="0"
       sodipodi:ry="31.270535"
       sodipodi:rx="26.326048"
       sodipodi:cy="278.10422"
       sodipodi:cx="-10.407422"
       sodipodi:type="arc"
       id="path850"
       style="opacity:1;fill:#ffffff;fill-opacity:1;stroke:#000000;stroke-width:2;stroke-linecap:round;stroke-linejoin:miter;stroke-miterlimit:4;stroke-dasharray:none;stroke-dashoffset:0;stroke-opacity:1"
       inkscape:export-xdpi="96"
       inkscape:export-ydpi="96" />
    <path
       style="opacity:1;fill:#000000;fill-opacity:0.1254902;stroke:none;stroke-width:1.52397716;stroke-linecap:round;stroke-linejoin:miter;stroke-miterlimit:4;stroke-dasharray:none;stroke-dashoffset:0;stroke-opacity:1"
       id="path854"
       sodipodi:type="arc"
       sodipodi:cx="-15.64758"
       sodipodi:cy="280.25229"
       sodipodi:rx="20.060146"
       sodipodi:ry="23.827791"
       sodipodi:start="0"
       sodipodi:end="6.2731322"
       sodipodi:open="true"
       d="M 4.4125662,280.25229 A 20.060146,23.827791 0 0 1 -15.597163,304.08 a 20.060146,23.827791 0 0 1 -20.11031,-23.70794 20.060146,23.827791 0 0 1 19.908644,-23.94689 20.060146,23.827791 0 0 1 20.2103815,23.58758"
       transform="rotate(-48.420116)"
       inkscape:export-xdpi="96"
       inkscape:export-ydpi="96" />
    <path
       style="fill:#ffffff;stroke:#000000;stroke-width:2;stroke-linecap:butt;stroke-linejoin:miter;stroke-miterlimit:4;stroke-dasharray:none;stroke-opacity:1"
       d="m 28.244612,179.95205 c 0.801809,-0.4009 7.486866,-6.17459 27.080178,-6.28083 19.593308,-0.10624 38.219538,2.53906 38.219538,2.53906 0,0 18.877922,-6.04768 40.491332,-7.75082 21.6134,-1.70314 43.96583,5.47903 43.96583,5.47903 0,0 6.63337,6.3325 8.68626,18.30797 2.05289,11.97547 -0.13363,21.24792 -0.13363,21.24792 L 27.977343,212.15803 c 0,0 -3.49928,-4.4404 -3.741775,-14.43255 -0.242494,-9.99214 4.009044,-17.77343 4.009044,-17.77343 z"
       id="path824"
       inkscape:connector-curvature="0"
       sodipodi:nodetypes="czczczcczc"
       inkscape:export-xdpi="96"
       inkscape:export-ydpi="96" />
    <path
       style="opacity:1;fill:#000000;fill-opacity:0.1254902;stroke:none;stroke-width:1.95966589;stroke-linecap:round;stroke-linejoin:miter;stroke-miterlimit:4;stroke-dasharray:none;stroke-dashoffset:0;stroke-opacity:1"
       d="M 60.106818,54.567844 A 42.711311,49.987353 0 0 0 24.24854,78.097674 c -1.682247,6.230421 -2.21865,13.016597 -1.331185,20.219951 4.190574,34.013905 22.724708,47.663455 28.532109,53.554875 0,0 5.526513,1.66161 15.241447,2.08256 a 42.711311,49.987353 0 0 0 36.449459,-49.40163 l -0.002,-0.5023 A 42.711311,49.987353 0 0 0 60.106818,54.567844 Z"
       id="path837"
       inkscape:connector-curvature="0"
       inkscape:export-xdpi="96"
       inkscape:export-ydpi="96" />
    <path
       style="fill:#000000;fill-opacity:0.1254902;stroke:none;stroke-width:0.26458332px;stroke-linecap:butt;stroke-linejoin:miter;stroke-opacity:1"
       d="m 120.00401,89.598846 c 0,0 -1.4644,3.285616 -1.1359,7.750809 0.32851,4.465205 2.20498,8.352175 2.20498,8.352175 0,0 -2.58371,2.31205 -5.81312,2.47226 -3.22941,0.16021 -4.94448,-1.53681 -4.94448,-1.53681 0,0 -1.41298,-3.14062 -1.93769,-8.285355 -0.52472,-5.144725 0.86861,-8.953533 0.86861,-8.953533 0,0 1.7243,-1.563125 4.87767,-1.603618 3.15336,-0.04049 5.87993,1.804072 5.87993,1.804072 z"
       id="path844"
       inkscape:connector-curvature="0"
       sodipodi:nodetypes="czczczczc"
       inkscape:export-xdpi="96"
       inkscape:export-ydpi="96" />
    <path
       style="fill:#000000;fill-opacity:0.1254902;stroke:none;stroke-width:0.26458332px;stroke-linecap:butt;stroke-linejoin:miter;stroke-opacity:1"
       d="m 34.537615,211.04841 c 0,0 -2.72517,-6.53542 -3.023809,-10.96131 -0.29864,-4.42589 3.779761,-13.98513 3.779761,-13.98513 0,0 12.407164,-3.82419 22.300596,-3.77975 9.893432,0.0444 35.151785,5.10268 35.151785,5.10268 0,0 27.399492,-5.94301 39.687492,-5.66965 12.288,0.27336 33.07292,6.23661 33.07292,6.23661 0,0 4.14401,9.16408 4.53571,13.79613 0.3917,4.63205 -0.37798,11.90625 -0.37798,11.90625 z"
       id="path846"
       inkscape:connector-curvature="0"
       sodipodi:nodetypes="czczczczcc"
       inkscape:export-xdpi="96"
       inkscape:export-ydpi="96" />
  </g>
</svg>
